# Blender v2.90.0 OBJ File: ''
# www.blender.org
mtllib 0.mtl
o Text_Text.001
v 0.439928 -0.000005 -0.297791
v 0.439893 -0.000005 -0.288346
v 0.439786 -0.000005 -0.279308
v 0.439609 -0.000005 -0.270679
v 0.439361 -0.000005 -0.262457
v 0.439041 -0.000005 -0.254643
v 0.438651 -0.000005 -0.247238
v 0.438190 -0.000005 -0.240240
v 0.437658 -0.000005 -0.233650
v 0.437055 -0.000005 -0.227469
v 0.436381 -0.000005 -0.221695
v 0.435636 -0.000005 -0.216329
v 0.434820 -0.000005 -0.211371
v 0.433720 -0.000005 -0.205275
v 0.432407 -0.000005 -0.199049
v 0.430882 -0.000005 -0.192693
v 0.429143 -0.000005 -0.186207
v 0.427192 -0.000005 -0.179591
v 0.425028 -0.000005 -0.172844
v 0.422651 -0.000005 -0.165968
v 0.420062 -0.000005 -0.158961
v 0.417259 -0.000005 -0.151825
v 0.414243 -0.000005 -0.144558
v 0.411015 -0.000005 -0.137161
v 0.407574 -0.000005 -0.129634
v 0.402223 -0.000005 -0.118595
v 0.396671 -0.000005 -0.108041
v 0.390918 -0.000005 -0.097972
v 0.384964 -0.000005 -0.088388
v 0.378809 -0.000005 -0.079288
v 0.372453 -0.000005 -0.070673
v 0.365896 -0.000005 -0.062543
v 0.359137 -0.000005 -0.054898
v 0.352178 -0.000005 -0.047738
v 0.345018 -0.000005 -0.041062
v 0.337657 -0.000005 -0.034872
v 0.330094 -0.000005 -0.029166
v 0.324031 -0.000005 -0.025154
v 0.317760 -0.000005 -0.021492
v 0.311283 -0.000005 -0.018177
v 0.304599 -0.000005 -0.015212
v 0.297707 -0.000005 -0.012596
v 0.290609 -0.000005 -0.010328
v 0.283304 -0.000005 -0.008410
v 0.275792 -0.000005 -0.006840
v 0.268073 -0.000005 -0.005619
v 0.260147 -0.000005 -0.004747
v 0.252014 -0.000005 -0.004224
v 0.243674 -0.000005 -0.004049
v 0.233126 -0.000005 -0.004315
v 0.222767 -0.000005 -0.005113
v 0.212597 -0.000005 -0.006444
v 0.202617 -0.000005 -0.008306
v 0.192825 -0.000005 -0.010701
v 0.183223 -0.000005 -0.013628
v 0.173810 -0.000005 -0.017087
v 0.164586 -0.000005 -0.021078
v 0.155552 -0.000005 -0.025601
v 0.146706 -0.000005 -0.030656
v 0.138050 -0.000005 -0.036244
v 0.129583 -0.000005 -0.042363
v 0.123564 -0.000005 -0.047164
v 0.117711 -0.000005 -0.052344
v 0.112023 -0.000005 -0.057902
v 0.106500 -0.000005 -0.063838
v 0.101143 -0.000005 -0.070153
v 0.095952 -0.000005 -0.076846
v 0.090926 -0.000005 -0.083918
v 0.086066 -0.000005 -0.091368
v 0.081371 -0.000005 -0.099196
v 0.076842 -0.000005 -0.107403
v 0.072479 -0.000005 -0.115988
v 0.068281 -0.000005 -0.124952
v 0.063725 -0.000005 -0.135923
v 0.059565 -0.000005 -0.147266
v 0.055802 -0.000005 -0.158982
v 0.052435 -0.000005 -0.171071
v 0.049464 -0.000005 -0.183532
v 0.046889 -0.000005 -0.196365
v 0.044710 -0.000005 -0.209571
v 0.042927 -0.000005 -0.223149
v 0.041541 -0.000005 -0.237100
v 0.040550 -0.000005 -0.251424
v 0.039956 -0.000005 -0.266120
v 0.039758 -0.000005 -0.281188
v 0.040122 -0.000005 -0.303420
v 0.041212 -0.000005 -0.324989
v 0.043031 -0.000005 -0.345897
v 0.045576 -0.000005 -0.366142
v 0.048849 -0.000005 -0.385725
v 0.052849 -0.000005 -0.404645
v 0.057576 -0.000005 -0.422903
v 0.063030 -0.000005 -0.440500
v 0.069212 -0.000005 -0.457434
v 0.076121 -0.000005 -0.473705
v 0.083757 -0.000005 -0.489315
v 0.092121 -0.000005 -0.504262
v 0.096091 -0.000005 -0.510606
v 0.100339 -0.000005 -0.516726
v 0.104865 -0.000005 -0.522621
v 0.109669 -0.000005 -0.528291
v 0.114751 -0.000005 -0.533737
v 0.120111 -0.000005 -0.538958
v 0.125749 -0.000005 -0.543954
v 0.131665 -0.000005 -0.548725
v 0.137858 -0.000005 -0.553272
v 0.144330 -0.000005 -0.557594
v 0.151079 -0.000005 -0.561692
v 0.158106 -0.000005 -0.565565
v 0.164684 -0.000005 -0.568760
v 0.171362 -0.000005 -0.571678
v 0.178141 -0.000005 -0.574318
v 0.185021 -0.000005 -0.576680
v 0.192001 -0.000005 -0.578765
v 0.199081 -0.000005 -0.580571
v 0.206262 -0.000005 -0.582099
v 0.213543 -0.000005 -0.583350
v 0.220925 -0.000005 -0.584323
v 0.228408 -0.000005 -0.585017
v 0.235991 -0.000005 -0.585434
v 0.243674 -0.000005 -0.585573
v 0.256611 -0.000005 -0.585059
v 0.269312 -0.000005 -0.583516
v 0.281776 -0.000005 -0.580944
v 0.294003 -0.000005 -0.577343
v 0.305994 -0.000005 -0.572713
v 0.317749 -0.000005 -0.567055
v 0.329266 -0.000005 -0.560367
v 0.340548 -0.000005 -0.552651
v 0.351593 -0.000005 -0.543907
v 0.362401 -0.000005 -0.534133
v 0.372973 -0.000005 -0.523330
v 0.383308 -0.000005 -0.511499
v 0.392352 -0.000005 -0.499479
v 0.400609 -0.000005 -0.486406
v 0.408080 -0.000005 -0.472280
v 0.414764 -0.000005 -0.457102
v 0.420662 -0.000005 -0.440872
v 0.425773 -0.000005 -0.423589
v 0.430098 -0.000005 -0.405254
v 0.433637 -0.000005 -0.385866
v 0.436389 -0.000005 -0.365426
v 0.438355 -0.000005 -0.343934
v 0.439535 -0.000005 -0.321389
v 0.351806 -0.000005 -0.256071
v 0.351667 -0.000005 -0.271823
v 0.351250 -0.000005 -0.287148
v 0.350555 -0.000005 -0.302048
v 0.349582 -0.000005 -0.316523
v 0.348332 -0.000005 -0.330571
v 0.346803 -0.000005 -0.344194
v 0.344997 -0.000005 -0.357391
v 0.342913 -0.000005 -0.370162
v 0.340551 -0.000005 -0.382508
v 0.337911 -0.000005 -0.394428
v 0.334993 -0.000005 -0.405922
v 0.331797 -0.000005 -0.416991
v 0.328249 -0.000005 -0.428172
v 0.324702 -0.000005 -0.438726
v 0.321154 -0.000005 -0.448653
v 0.317607 -0.000005 -0.457954
v 0.314059 -0.000005 -0.466628
v 0.310511 -0.000005 -0.474675
v 0.306964 -0.000005 -0.482095
v 0.303416 -0.000005 -0.488889
v 0.299869 -0.000005 -0.495056
v 0.296321 -0.000005 -0.500596
v 0.292773 -0.000005 -0.505510
v 0.289226 -0.000005 -0.509796
v 0.284499 -0.000005 -0.514494
v 0.279399 -0.000005 -0.518795
v 0.273927 -0.000005 -0.522701
v 0.268082 -0.000005 -0.526210
v 0.261865 -0.000005 -0.529323
v 0.255275 -0.000005 -0.532040
v 0.248313 -0.000005 -0.534361
v 0.240978 -0.000005 -0.536285
v 0.233271 -0.000005 -0.537814
v 0.225191 -0.000005 -0.538946
v 0.216739 -0.000005 -0.539682
v 0.207915 -0.000005 -0.540022
v 0.203232 -0.000005 -0.539901
v 0.198691 -0.000005 -0.539395
v 0.194292 -0.000005 -0.538505
v 0.190035 -0.000005 -0.537231
v 0.185919 -0.000005 -0.535573
v 0.181946 -0.000005 -0.533530
v 0.178115 -0.000005 -0.531103
v 0.174425 -0.000005 -0.528291
v 0.170878 -0.000005 -0.525095
v 0.167472 -0.000005 -0.521515
v 0.164208 -0.000005 -0.517551
v 0.161086 -0.000005 -0.513202
v 0.157769 -0.000005 -0.507978
v 0.154629 -0.000005 -0.502524
v 0.151667 -0.000005 -0.496839
v 0.148882 -0.000005 -0.490923
v 0.146275 -0.000005 -0.484777
v 0.143845 -0.000005 -0.478400
v 0.141592 -0.000005 -0.471793
v 0.139517 -0.000005 -0.464954
v 0.137619 -0.000005 -0.457886
v 0.135898 -0.000005 -0.450587
v 0.134355 -0.000005 -0.443057
v 0.132989 -0.000005 -0.435296
v 0.131901 -0.000005 -0.428113
v 0.130908 -0.000005 -0.420893
v 0.130009 -0.000005 -0.413638
v 0.129205 -0.000005 -0.406348
v 0.128495 -0.000005 -0.399022
v 0.127880 -0.000005 -0.391661
v 0.127360 -0.000005 -0.384264
v 0.126934 -0.000005 -0.376832
v 0.126603 -0.000005 -0.369364
v 0.126367 -0.000005 -0.361861
v 0.126225 -0.000005 -0.354322
v 0.126178 -0.000005 -0.346748
v 0.126317 -0.000005 -0.331145
v 0.126733 -0.000005 -0.315837
v 0.127428 -0.000005 -0.300824
v 0.128401 -0.000005 -0.286108
v 0.129651 -0.000005 -0.271687
v 0.131180 -0.000005 -0.257561
v 0.132986 -0.000005 -0.243731
v 0.135070 -0.000005 -0.230197
v 0.137432 -0.000005 -0.216959
v 0.140072 -0.000005 -0.204016
v 0.142990 -0.000005 -0.191369
v 0.146186 -0.000005 -0.179017
v 0.150807 -0.000005 -0.162722
v 0.155445 -0.000005 -0.147609
v 0.160102 -0.000005 -0.133679
v 0.164776 -0.000005 -0.120931
v 0.169467 -0.000005 -0.109366
v 0.174177 -0.000005 -0.098983
v 0.178904 -0.000005 -0.089783
v 0.183649 -0.000005 -0.081765
v 0.188412 -0.000005 -0.074930
v 0.193192 -0.000005 -0.069278
v 0.197990 -0.000005 -0.064808
v 0.202806 -0.000005 -0.061520
v 0.207391 -0.000005 -0.059064
v 0.212065 -0.000005 -0.056802
v 0.216828 -0.000005 -0.054736
v 0.221679 -0.000005 -0.052864
v 0.226619 -0.000005 -0.051188
v 0.231648 -0.000005 -0.049707
v 0.236765 -0.000005 -0.048421
v 0.241972 -0.000005 -0.047330
v 0.247266 -0.000005 -0.046434
v 0.252650 -0.000005 -0.045734
v 0.258122 -0.000005 -0.045228
v 0.263683 -0.000005 -0.044918
v 0.268783 -0.000005 -0.044897
v 0.273723 -0.000005 -0.045260
v 0.278503 -0.000005 -0.046008
v 0.283124 -0.000005 -0.047141
v 0.287585 -0.000005 -0.048657
v 0.291886 -0.000005 -0.050558
v 0.296028 -0.000005 -0.052844
v 0.300011 -0.000005 -0.055513
v 0.303833 -0.000005 -0.058567
v 0.307496 -0.000005 -0.062005
v 0.310999 -0.000005 -0.065828
v 0.314343 -0.000005 -0.070035
v 0.317205 -0.000005 -0.074179
v 0.319972 -0.000005 -0.078809
v 0.322644 -0.000005 -0.083924
v 0.325222 -0.000005 -0.089523
v 0.327706 -0.000005 -0.095607
v 0.330094 -0.000005 -0.102176
v 0.332388 -0.000005 -0.109230
v 0.334588 -0.000005 -0.116768
v 0.336693 -0.000005 -0.124792
v 0.338703 -0.000005 -0.133300
v 0.340619 -0.000005 -0.142294
v 0.342440 -0.000005 -0.151772
v 0.343936 -0.000005 -0.160431
v 0.345302 -0.000005 -0.169096
v 0.346537 -0.000005 -0.177767
v 0.347643 -0.000005 -0.186444
v 0.348619 -0.000005 -0.195126
v 0.349464 -0.000005 -0.203815
v 0.350180 -0.000005 -0.212510
v 0.350765 -0.000005 -0.221210
v 0.351220 -0.000005 -0.229916
v 0.351545 -0.000005 -0.238629
v 0.351741 -0.000005 -0.247347
vt 0.414634 0.000000
vt 0.421603 0.000000
vt 0.418118 0.000000
vt 0.411150 0.000000
vt 0.425087 0.000000
vt 0.407665 0.000000
vt 0.404181 0.000000
vt 0.428571 0.000000
vt 0.400697 0.000000
vt 0.397213 0.000000
vt 0.432056 0.000000
vt 0.393728 0.000000
vt 0.390244 0.000000
vt 0.435540 0.000000
vt 0.386760 0.000000
vt 0.383275 0.000000
vt 0.439024 0.000000
vt 0.379791 0.000000
vt 0.376307 0.000000
vt 0.442509 0.000000
vt 0.372822 0.000000
vt 0.369338 0.000000
vt 0.445993 0.000000
vt 0.365854 0.000000
vt 0.362369 0.000000
vt 0.449477 0.000000
vt 0.358885 0.000000
vt 0.355401 0.000000
vt 0.627178 0.000000
vt 0.452962 0.000000
vt 0.630662 0.000000
vt 0.623693 0.000000
vt 0.634146 0.000000
vt 0.620209 0.000000
vt 0.637631 0.000000
vt 0.351916 0.000000
vt 0.616725 0.000000
vt 0.641115 0.000000
vt 0.613240 0.000000
vt 0.644599 0.000000
vt 0.609756 0.000000
vt 0.648084 0.000000
vt 0.606272 0.000000
vt 0.456446 0.000000
vt 0.348432 0.000000
vt 0.651568 0.000000
vt 0.602787 0.000000
vt 0.655052 0.000000
vt 0.599303 0.000000
vt 0.344948 0.000000
vt 0.658537 0.000000
vt 0.595819 0.000000
vt 0.662021 0.000000
vt 0.459930 0.000000
vt 0.592335 0.000000
vt 0.341463 0.000000
vt 0.665505 0.000000
vt 0.588850 0.000000
vt 0.668990 0.000000
vt 0.337979 0.000000
vt 0.585366 0.000000
vt 0.672474 0.000000
vt 0.463415 0.000000
vt 0.334495 0.000000
vt 0.581882 0.000000
vt 0.675958 0.000000
vt 0.578397 0.000000
vt 0.331010 0.000000
vt 0.679443 0.000000
vt 0.574913 0.000000
vt 0.466899 0.000000
vt 0.682927 0.000000
vt 0.571429 0.000000
vt 0.686411 0.000000
vt 0.327526 0.000000
vt 0.567944 0.000000
vt 0.470383 0.000000
vt 0.689895 0.000000
vt 0.564460 0.000000
vt 0.693380 0.000000
vt 0.560976 0.000000
vt 0.324042 0.000000
vt 0.473868 0.000000
vt 0.696864 0.000000
vt 0.557491 0.000000
vt 0.700348 0.000000
vt 0.554007 0.000000
vt 0.703833 0.000000
vt 0.320558 0.000000
vt 0.477352 0.000000
vt 0.707317 0.000000
vt 0.550523 0.000000
vt 0.710801 0.000000
vt 0.480836 0.000000
vt 0.317073 0.000000
vt 0.547038 0.000000
vt 0.714286 0.000000
vt 0.543554 0.000000
vt 0.717770 0.000000
vt 0.484321 0.000000
vt 0.313589 0.000000
vt 0.721254 0.000000
vt 0.540070 0.000000
vt 0.724739 0.000000
vt 0.728223 0.000000
vt 0.536585 0.000000
vt 0.487805 0.000000
vt 0.310105 0.000000
vt 0.731707 0.000000
vt 0.533101 0.000000
vt 0.735192 0.000000
vt 0.491289 0.000000
vt 0.306620 0.000000
vt 0.738676 0.000000
vt 0.529617 0.000000
vt 0.742160 0.000000
vt 0.526132 0.000000
vt 0.745645 0.000000
vt 0.303136 0.000000
vt 0.494774 0.000000
vt 0.749129 0.000000
vt 0.522648 0.000000
vt 0.752613 0.000000
vt 0.756098 0.000000
vt 0.299652 0.000000
vt 0.519164 0.000000
vt 0.498258 0.000000
vt 0.759582 0.000000
vt 0.515679 0.000000
vt 0.296167 0.000000
vt 0.000000 0.000000
vt 0.512195 0.000000
vt 0.763066 0.000000
vt 0.292683 0.000000
vt 0.508711 0.000000
vt 0.766551 0.000000
vt 0.003484 0.000000
vt 0.006969 0.000000
vt 0.505226 0.000000
vt 0.770035 0.000000
vt 0.289199 0.000000
vt 0.010453 0.000000
vt 0.501742 0.000000
vt 0.773519 0.000000
vt 0.013937 0.000000
vt 0.285714 0.000000
vt 0.017422 0.000000
vt 0.777003 0.000000
vt 1.000000 0.000000
vt 0.020906 0.000000
vt 0.282230 0.000000
vt 0.996516 0.000000
vt 0.024390 0.000000
vt 0.780488 0.000000
vt 0.027875 0.000000
vt 0.993031 0.000000
vt 0.278746 0.000000
vt 0.031359 0.000000
vt 0.783972 0.000000
vt 0.989547 0.000000
vt 0.034843 0.000000
vt 0.275261 0.000000
vt 0.038328 0.000000
vt 0.986063 0.000000
vt 0.787456 0.000000
vt 0.041812 0.000000
vt 0.982578 0.000000
vt 0.045296 0.000000
vt 0.271777 0.000000
vt 0.048780 0.000000
vt 0.790941 0.000000
vt 0.979094 0.000000
vt 0.052265 0.000000
vt 0.268293 0.000000
vt 0.975610 0.000000
vt 0.055749 0.000000
vt 0.794425 0.000000
vt 0.972125 0.000000
vt 0.059233 0.000000
vt 0.264808 0.000000
vt 0.062718 0.000000
vt 0.797909 0.000000
vt 0.968641 0.000000
vt 0.066202 0.000000
vt 0.261324 0.000000
vt 0.965157 0.000000
vt 0.069686 0.000000
vt 0.801394 0.000000
vt 0.961672 0.000000
vt 0.257840 0.000000
vt 0.073171 0.000000
vt 0.076655 0.000000
vt 0.958188 0.000000
vt 0.804878 0.000000
vt 0.254355 0.000000
vt 0.080139 0.000000
vt 0.954704 0.000000
vt 0.083624 0.000000
vt 0.250871 0.000000
vt 0.808362 0.000000
vt 0.951219 0.000000
vt 0.087108 0.000000
vt 0.247387 0.000000
vt 0.947735 0.000000
vt 0.811847 0.000000
vt 0.090592 0.000000
vt 0.944251 0.000000
vt 0.243902 0.000000
vt 0.815331 0.000000
vt 0.940767 0.000000
vt 0.094077 0.000000
vt 0.240418 0.000000
vt 0.937282 0.000000
vt 0.236934 0.000000
vt 0.818815 0.000000
vt 0.097561 0.000000
vt 0.933798 0.000000
vt 0.233449 0.000000
vt 0.822300 0.000000
vt 0.930314 0.000000
vt 0.101045 0.000000
vt 0.926829 0.000000
vt 0.229965 0.000000
vt 0.825784 0.000000
vt 0.104530 0.000000
vt 0.923345 0.000000
vt 0.226481 0.000000
vt 0.829268 0.000000
vt 0.919861 0.000000
vt 0.108014 0.000000
vt 0.222997 0.000000
vt 0.916376 0.000000
vt 0.832753 0.000000
vt 0.912892 0.000000
vt 0.836237 0.000000
vt 0.219512 0.000000
vt 0.111498 0.000000
vt 0.909408 0.000000
vt 0.839721 0.000000
vt 0.843206 0.000000
vt 0.905923 0.000000
vt 0.216028 0.000000
vt 0.846690 0.000000
vt 0.902439 0.000000
vt 0.114983 0.000000
vt 0.850174 0.000000
vt 0.853659 0.000000
vt 0.898955 0.000000
vt 0.212544 0.000000
vt 0.857143 0.000000
vt 0.895470 0.000000
vt 0.860627 0.000000
vt 0.891986 0.000000
vt 0.864111 0.000000
vt 0.118467 0.000000
vt 0.867596 0.000000
vt 0.209059 0.000000
vt 0.888502 0.000000
vt 0.871080 0.000000
vt 0.885017 0.000000
vt 0.874564 0.000000
vt 0.881533 0.000000
vt 0.878049 0.000000
vt 0.205575 0.000000
vt 0.121951 0.000000
vt 0.202091 0.000000
vt 0.125436 0.000000
vt 0.198606 0.000000
vt 0.128920 0.000000
vt 0.195122 0.000000
vt 0.132404 0.000000
vt 0.135889 0.000000
vt 0.191638 0.000000
vt 0.139373 0.000000
vt 0.188153 0.000000
vt 0.142857 0.000000
vt 0.184669 0.000000
vt 0.146341 0.000000
vt 0.181185 0.000000
vt 0.149826 0.000000
vt 0.153310 0.000000
vt 0.177700 0.000000
vt 0.156794 0.000000
vt 0.174216 0.000000
vt 0.160279 0.000000
vt 0.170732 0.000000
vt 0.163763 0.000000
vt 0.167247 0.000000
vn 0.0000 1.0000 -0.0000
g Text_Text.001_None
usemtl None
s off
f 120/1/1 122/2/1 121/3/1
f 119/4/1 122/2/1 120/1/1
f 119/4/1 123/5/1 122/2/1
f 118/6/1 123/5/1 119/4/1
f 117/7/1 123/5/1 118/6/1
f 117/7/1 124/8/1 123/5/1
f 116/9/1 124/8/1 117/7/1
f 115/10/1 124/8/1 116/9/1
f 115/10/1 125/11/1 124/8/1
f 114/12/1 125/11/1 115/10/1
f 113/13/1 125/11/1 114/12/1
f 113/13/1 126/14/1 125/11/1
f 112/15/1 126/14/1 113/13/1
f 111/16/1 126/14/1 112/15/1
f 111/16/1 127/17/1 126/14/1
f 110/18/1 127/17/1 111/16/1
f 109/19/1 127/17/1 110/18/1
f 109/19/1 128/20/1 127/17/1
f 108/21/1 128/20/1 109/19/1
f 107/22/1 128/20/1 108/21/1
f 107/22/1 129/23/1 128/20/1
f 106/24/1 129/23/1 107/22/1
f 105/25/1 129/23/1 106/24/1
f 105/25/1 130/26/1 129/23/1
f 104/27/1 130/26/1 105/25/1
f 103/28/1 130/26/1 104/27/1
f 103/28/1 181/29/1 130/26/1
f 181/29/1 131/30/1 130/26/1
f 103/28/1 182/31/1 181/29/1
f 180/32/1 131/30/1 181/29/1
f 103/28/1 183/33/1 182/31/1
f 179/34/1 131/30/1 180/32/1
f 103/28/1 184/35/1 183/33/1
f 102/36/1 184/35/1 103/28/1
f 178/37/1 131/30/1 179/34/1
f 102/36/1 185/38/1 184/35/1
f 177/39/1 131/30/1 178/37/1
f 102/36/1 186/40/1 185/38/1
f 176/41/1 131/30/1 177/39/1
f 102/36/1 187/42/1 186/40/1
f 175/43/1 131/30/1 176/41/1
f 175/43/1 132/44/1 131/30/1
f 101/45/1 187/42/1 102/36/1
f 101/45/1 188/46/1 187/42/1
f 174/47/1 132/44/1 175/43/1
f 101/45/1 189/48/1 188/46/1
f 173/49/1 132/44/1 174/47/1
f 100/50/1 189/48/1 101/45/1
f 100/50/1 190/51/1 189/48/1
f 172/52/1 132/44/1 173/49/1
f 100/50/1 191/53/1 190/51/1
f 172/52/1 133/54/1 132/44/1
f 171/55/1 133/54/1 172/52/1
f 99/56/1 191/53/1 100/50/1
f 99/56/1 192/57/1 191/53/1
f 170/58/1 133/54/1 171/55/1
f 99/56/1 193/59/1 192/57/1
f 98/60/1 193/59/1 99/56/1
f 169/61/1 133/54/1 170/58/1
f 98/60/1 194/62/1 193/59/1
f 169/61/1 134/63/1 133/54/1
f 97/64/1 194/62/1 98/60/1
f 168/65/1 134/63/1 169/61/1
f 97/64/1 195/66/1 194/62/1
f 167/67/1 134/63/1 168/65/1
f 96/68/1 195/66/1 97/64/1
f 96/68/1 196/69/1 195/66/1
f 166/70/1 134/63/1 167/67/1
f 166/70/1 135/71/1 134/63/1
f 96/68/1 197/72/1 196/69/1
f 165/73/1 135/71/1 166/70/1
f 96/68/1 198/74/1 197/72/1
f 95/75/1 198/74/1 96/68/1
f 164/76/1 135/71/1 165/73/1
f 164/76/1 136/77/1 135/71/1
f 95/75/1 199/78/1 198/74/1
f 163/79/1 136/77/1 164/76/1
f 95/75/1 200/80/1 199/78/1
f 162/81/1 136/77/1 163/79/1
f 94/82/1 200/80/1 95/75/1
f 162/81/1 137/83/1 136/77/1
f 94/82/1 201/84/1 200/80/1
f 161/85/1 137/83/1 162/81/1
f 94/82/1 202/86/1 201/84/1
f 160/87/1 137/83/1 161/85/1
f 94/82/1 203/88/1 202/86/1
f 93/89/1 203/88/1 94/82/1
f 160/87/1 138/90/1 137/83/1
f 93/89/1 204/91/1 203/88/1
f 159/92/1 138/90/1 160/87/1
f 93/89/1 205/93/1 204/91/1
f 159/92/1 139/94/1 138/90/1
f 92/95/1 205/93/1 93/89/1
f 158/96/1 139/94/1 159/92/1
f 92/95/1 206/97/1 205/93/1
f 157/98/1 139/94/1 158/96/1
f 92/95/1 207/99/1 206/97/1
f 157/98/1 140/100/1 139/94/1
f 91/101/1 207/99/1 92/95/1
f 91/101/1 208/102/1 207/99/1
f 156/103/1 140/100/1 157/98/1
f 91/101/1 209/104/1 208/102/1
f 91/101/1 210/105/1 209/104/1
f 155/106/1 140/100/1 156/103/1
f 155/106/1 141/107/1 140/100/1
f 90/108/1 210/105/1 91/101/1
f 90/108/1 211/109/1 210/105/1
f 154/110/1 141/107/1 155/106/1
f 90/108/1 212/111/1 211/109/1
f 154/110/1 142/112/1 141/107/1
f 89/113/1 212/111/1 90/108/1
f 89/113/1 213/114/1 212/111/1
f 153/115/1 142/112/1 154/110/1
f 89/113/1 214/116/1 213/114/1
f 152/117/1 142/112/1 153/115/1
f 89/113/1 215/118/1 214/116/1
f 88/119/1 215/118/1 89/113/1
f 152/117/1 143/120/1 142/112/1
f 88/119/1 216/121/1 215/118/1
f 151/122/1 143/120/1 152/117/1
f 88/119/1 217/123/1 216/121/1
f 88/119/1 218/124/1 217/123/1
f 87/125/1 218/124/1 88/119/1
f 150/126/1 143/120/1 151/122/1
f 150/126/1 144/127/1 143/120/1
f 87/125/1 219/128/1 218/124/1
f 149/129/1 144/127/1 150/126/1
f 86/130/1 219/128/1 87/125/1
f 149/129/1 1/131/1 144/127/1
f 148/132/1 1/131/1 149/129/1
f 86/130/1 220/133/1 219/128/1
f 85/134/1 220/133/1 86/130/1
f 147/135/1 1/131/1 148/132/1
f 85/134/1 221/136/1 220/133/1
f 147/135/1 2/137/1 1/131/1
f 147/135/1 3/138/1 2/137/1
f 146/139/1 3/138/1 147/135/1
f 85/134/1 222/140/1 221/136/1
f 84/141/1 222/140/1 85/134/1
f 146/139/1 4/142/1 3/138/1
f 145/143/1 4/142/1 146/139/1
f 84/141/1 223/144/1 222/140/1
f 145/143/1 5/145/1 4/142/1
f 83/146/1 223/144/1 84/141/1
f 145/143/1 6/147/1 5/145/1
f 83/146/1 224/148/1 223/144/1
f 288/149/1 6/147/1 145/143/1
f 288/149/1 7/150/1 6/147/1
f 82/151/1 224/148/1 83/146/1
f 287/152/1 7/150/1 288/149/1
f 287/152/1 8/153/1 7/150/1
f 82/151/1 225/154/1 224/148/1
f 287/152/1 9/155/1 8/153/1
f 286/156/1 9/155/1 287/152/1
f 81/157/1 225/154/1 82/151/1
f 286/156/1 10/158/1 9/155/1
f 81/157/1 226/159/1 225/154/1
f 285/160/1 10/158/1 286/156/1
f 285/160/1 11/161/1 10/158/1
f 80/162/1 226/159/1 81/157/1
f 285/160/1 12/163/1 11/161/1
f 284/164/1 12/163/1 285/160/1
f 80/162/1 227/165/1 226/159/1
f 284/164/1 13/166/1 12/163/1
f 283/167/1 13/166/1 284/164/1
f 283/167/1 14/168/1 13/166/1
f 79/169/1 227/165/1 80/162/1
f 283/167/1 15/170/1 14/168/1
f 79/169/1 228/171/1 227/165/1
f 282/172/1 15/170/1 283/167/1
f 282/172/1 16/173/1 15/170/1
f 78/174/1 228/171/1 79/169/1
f 281/175/1 16/173/1 282/172/1
f 281/175/1 17/176/1 16/173/1
f 78/174/1 229/177/1 228/171/1
f 280/178/1 17/176/1 281/175/1
f 280/178/1 18/179/1 17/176/1
f 77/180/1 229/177/1 78/174/1
f 280/178/1 19/181/1 18/179/1
f 77/180/1 230/182/1 229/177/1
f 279/183/1 19/181/1 280/178/1
f 279/183/1 20/184/1 19/181/1
f 76/185/1 230/182/1 77/180/1
f 278/186/1 20/184/1 279/183/1
f 278/186/1 21/187/1 20/184/1
f 76/185/1 231/188/1 230/182/1
f 277/189/1 21/187/1 278/186/1
f 75/190/1 231/188/1 76/185/1
f 277/189/1 22/191/1 21/187/1
f 277/189/1 23/192/1 22/191/1
f 276/193/1 23/192/1 277/189/1
f 75/190/1 232/194/1 231/188/1
f 74/195/1 232/194/1 75/190/1
f 276/193/1 24/196/1 23/192/1
f 275/197/1 24/196/1 276/193/1
f 275/197/1 25/198/1 24/196/1
f 73/199/1 232/194/1 74/195/1
f 73/199/1 233/200/1 232/194/1
f 274/201/1 25/198/1 275/197/1
f 274/201/1 26/202/1 25/198/1
f 72/203/1 233/200/1 73/199/1
f 273/204/1 26/202/1 274/201/1
f 72/203/1 234/205/1 233/200/1
f 273/204/1 27/206/1 26/202/1
f 272/207/1 27/206/1 273/204/1
f 71/208/1 234/205/1 72/203/1
f 71/208/1 235/209/1 234/205/1
f 271/210/1 27/206/1 272/207/1
f 271/210/1 28/211/1 27/206/1
f 70/212/1 235/209/1 71/208/1
f 270/213/1 28/211/1 271/210/1
f 69/214/1 235/209/1 70/212/1
f 69/214/1 236/215/1 235/209/1
f 270/213/1 29/216/1 28/211/1
f 269/217/1 29/216/1 270/213/1
f 68/218/1 236/215/1 69/214/1
f 68/218/1 237/219/1 236/215/1
f 268/220/1 29/216/1 269/217/1
f 268/220/1 30/221/1 29/216/1
f 267/222/1 30/221/1 268/220/1
f 67/223/1 237/219/1 68/218/1
f 67/223/1 238/224/1 237/219/1
f 267/222/1 31/225/1 30/221/1
f 266/226/1 31/225/1 267/222/1
f 66/227/1 238/224/1 67/223/1
f 66/227/1 239/228/1 238/224/1
f 265/229/1 31/225/1 266/226/1
f 265/229/1 32/230/1 31/225/1
f 65/231/1 239/228/1 66/227/1
f 264/232/1 32/230/1 265/229/1
f 65/231/1 240/233/1 239/228/1
f 263/234/1 32/230/1 264/232/1
f 65/231/1 241/235/1 240/233/1
f 64/236/1 241/235/1 65/231/1
f 263/234/1 33/237/1 32/230/1
f 262/238/1 33/237/1 263/234/1
f 64/236/1 242/239/1 241/235/1
f 64/236/1 243/240/1 242/239/1
f 261/241/1 33/237/1 262/238/1
f 63/242/1 243/240/1 64/236/1
f 63/242/1 244/243/1 243/240/1
f 260/244/1 33/237/1 261/241/1
f 260/244/1 34/245/1 33/237/1
f 63/242/1 245/246/1 244/243/1
f 63/242/1 246/247/1 245/246/1
f 259/248/1 34/245/1 260/244/1
f 62/249/1 246/247/1 63/242/1
f 62/249/1 247/250/1 246/247/1
f 258/251/1 34/245/1 259/248/1
f 62/249/1 248/252/1 247/250/1
f 257/253/1 34/245/1 258/251/1
f 62/249/1 249/254/1 248/252/1
f 257/253/1 35/255/1 34/245/1
f 62/249/1 250/256/1 249/254/1
f 61/257/1 250/256/1 62/249/1
f 256/258/1 35/255/1 257/253/1
f 61/257/1 251/259/1 250/256/1
f 255/260/1 35/255/1 256/258/1
f 61/257/1 252/261/1 251/259/1
f 254/262/1 35/255/1 255/260/1
f 61/257/1 253/263/1 252/261/1
f 61/257/1 254/262/1 253/263/1
f 61/257/1 35/255/1 254/262/1
f 60/264/1 35/255/1 61/257/1
f 60/264/1 36/265/1 35/255/1
f 59/266/1 36/265/1 60/264/1
f 59/266/1 37/267/1 36/265/1
f 58/268/1 37/267/1 59/266/1
f 58/268/1 38/269/1 37/267/1
f 57/270/1 38/269/1 58/268/1
f 57/270/1 39/271/1 38/269/1
f 57/270/1 40/272/1 39/271/1
f 56/273/1 40/272/1 57/270/1
f 56/273/1 41/274/1 40/272/1
f 55/275/1 41/274/1 56/273/1
f 55/275/1 42/276/1 41/274/1
f 54/277/1 42/276/1 55/275/1
f 54/277/1 43/278/1 42/276/1
f 53/279/1 43/278/1 54/277/1
f 53/279/1 44/280/1 43/278/1
f 53/279/1 45/281/1 44/280/1
f 52/282/1 45/281/1 53/279/1
f 52/282/1 46/283/1 45/281/1
f 51/284/1 46/283/1 52/282/1
f 51/284/1 47/285/1 46/283/1
f 50/286/1 47/285/1 51/284/1
f 50/286/1 48/287/1 47/285/1
f 49/288/1 48/287/1 50/286/1
