# Blender v2.90.0 OBJ File: ''
# www.blender.org
mtllib paddle.mtl
o Cube
v -0.678365 0.359141 -1.596181
v -0.678365 -0.359141 -1.596181
v -0.678365 0.359141 1.596181
v -0.678365 -0.359141 1.596181
v 0.678365 0.359141 -1.596181
v 0.678365 -0.359141 -1.596181
v 0.678365 0.359141 1.596181
v 0.678365 -0.359141 1.596181
v 0.678365 -0.359141 -1.173866
v 0.678365 -0.359141 1.123396
v -0.678365 0.359141 -1.173866
v -0.678365 0.359141 1.123396
v 0.678365 0.359141 1.123396
v 0.678365 0.359141 -1.173866
v -0.678365 -0.359141 1.123396
v -0.678365 -0.359141 -1.173866
vt 0.625000 0.666667
vt 0.625000 0.750000
vt 0.875000 0.750000
vt 0.875000 0.666667
vt 0.375000 0.750000
vt 0.375000 1.000000
vt 0.625000 1.000000
vt 0.375000 0.166667
vt 0.375000 0.250000
vt 0.625000 0.250000
vt 0.625000 0.166667
vt 0.125000 0.666667
vt 0.125000 0.750000
vt 0.375000 0.666667
vt 0.375000 0.500000
vt 0.625000 0.500000
vt 0.375000 0.583333
vt 0.625000 0.583333
vt 0.125000 0.500000
vt 0.125000 0.583333
vt 0.375000 0.000000
vt 0.375000 0.083333
vt 0.625000 0.083333
vt 0.625000 0.000000
vt 0.875000 0.583333
vt 0.875000 0.500000
vn 0.0000 1.0000 0.0000
vn 0.0000 0.0000 1.0000
vn 1.0000 0.0000 0.0000
vn 0.0000 -1.0000 0.0000
vn -1.0000 0.0000 0.0000
vn 0.0000 0.0000 -1.0000
g Cube_Cube_Material
usemtl Material
s off
f 12/1/1 3/2/1 7/3/1 13/4/1
f 4/5/2 8/6/2 7/7/2 3/2/2
f 9/8/3 6/9/3 5/10/3 14/11/3
f 10/12/4 8/13/4 4/5/4 15/14/4
f 15/14/5 4/5/5 3/2/5 12/1/5
f 6/9/6 2/15/6 1/16/6 5/10/6
f 2/15/5 16/17/5 11/18/5 1/16/5
f 16/17/5 15/14/5 12/1/5 11/18/5
f 6/19/4 9/20/4 16/17/4 2/15/4
f 9/20/4 10/12/4 15/14/4 16/17/4
f 8/21/3 10/22/3 13/23/3 7/24/3
f 10/22/3 9/8/3 14/11/3 13/23/3
f 1/16/1 11/18/1 14/25/1 5/26/1
f 11/18/1 12/1/1 13/4/1 14/25/1
